<?xml version="1.0" encoding="UTF-8"?>
<svg xmlns="http://www.w3.org/2000/svg" xmlns:xlink="http://www.w3.org/1999/xlink" width="570px" height="350px" viewBox="0 0 381 438" version="1.1">
<g id="surface1">
<path style=" stroke:none;fill-rule:nonzero;fill:rgb(94.901961%,94.901961%,94.901961%);fill-opacity:1;" d="M 355.304688 123.683594 L 276.644531 170.175781 L 275.816406 374.136719 L 355.511719 326.816406 Z M 355.304688 123.683594 "/>
<path style=" stroke:none;fill-rule:nonzero;fill:rgb(27.843139%,23.529412%,23.529412%);fill-opacity:1;" d="M 233.382812 308.835938 L 186.1875 337.355469 L 186.1875 426.417969 L 275.816406 374.136719 L 276.230469 283.214844 L 186.1875 337.355469 "/>
<path style=" stroke:none;fill-rule:nonzero;fill:rgb(27.843139%,23.529412%,23.529412%);fill-opacity:1;" d="M 139.195312 308.835938 L 186.1875 337.148438 L 186.1875 426.417969 L 96.554688 374.136719 L 96.347656 283.007812 L 186.1875 337.148438 "/>
<path style=" stroke:none;fill-rule:nonzero;fill:rgb(93.725491%,93.725491%,93.725491%);fill-opacity:1;" d="M 17.480469 123.890625 L 95.933594 170.382812 L 96.554688 374.136719 L 17.273438 326.816406 Z M 17.480469 123.890625 "/>
<path style=" stroke:none;fill-rule:nonzero;fill:rgb(74.901962%,74.509805%,75.686276%);fill-opacity:1;" d="M 95.933594 170.589844 L 185.980469 224.320312 L 185.980469 337.355469 L 96.347656 283.007812 Z M 95.933594 170.589844 "/>
<path style=" stroke:none;fill-rule:nonzero;fill:rgb(90.980393%,90.588236%,90.980393%);fill-opacity:1;" d="M 276.644531 170.589844 L 186.1875 224.320312 L 186.1875 337.355469 L 276.230469 283.214844 Z M 276.644531 170.589844 "/>
<path style=" stroke:none;fill-rule:nonzero;fill:rgb(18.039216%,17.647059%,19.215687%);fill-opacity:1;" d="M 185.980469 224.320312 L 355.097656 123.683594 L 354.890625 102.8125 L 185.980469 200.761719 Z M 185.980469 224.320312 "/>
<path style=" stroke:none;fill-rule:nonzero;fill:rgb(18.039216%,17.647059%,19.215687%);fill-opacity:1;" d="M 186.1875 224.320312 L 17.480469 123.890625 L 17.6875 103.019531 L 186.1875 200.761719 Z M 186.1875 224.320312 "/>
<path style=" stroke:none;fill-rule:nonzero;fill:rgb(100%,76.47059%,31.37255%);fill-opacity:1;" d="M 17.480469 102.605469 L 186.808594 7.339844 L 355.097656 102.605469 L 186.1875 200.761719 Z M 17.480469 102.605469 "/>
<path style="fill:none;stroke-width:4;stroke-linecap:butt;stroke-linejoin:miter;stroke:rgb(0%,0%,0%);stroke-opacity:1;stroke-miterlimit:10;" d="M 393.200049 113.399169 C 392.699974 148.700682 392.199898 184.100491 391.599808 219.400114 C 364.599506 235.499872 337.599204 251.59963 310.500774 267.699389 C 283.500472 251.59963 256.50017 235.499872 229.399853 219.400114 C 229.399853 183.499373 229.399853 147.700708 229.399853 111.799968 C 256.400155 96.700182 283.400457 81.700584 310.500774 66.600799 C 338.199294 82.199625 365.699672 97.800342 393.200049 113.399169 Z M 393.200049 113.399169 " transform="matrix(2.07,0,0,2.066462,-455.720974,-126.979551)"/>
</g>
</svg>
