<svg xml:space="preserve" viewBox="289.44 248.4 507.59999999999997 585.36" version="1.1" xmlns:xlink="http://www.w3.org/1999/xlink" xmlns="http://www.w3.org/2000/svg" style="max-height: 500px" width="507.59999999999997" height="585.36">
<desc>Created with Fabric.js 5.2.4</desc>
<defs>
</defs>
<rect fill="transparent" height="100%" width="100%" y="0" x="0"/>
<g id="c1834b16-e2ff-4116-acf8-24775b2b203b" transform="matrix(1 0 0 1 540 540)">
<rect height="1080" width="1080" ry="0" rx="0" y="-540" x="-540" style="stroke: none; stroke-width: 1; stroke-dasharray: none; stroke-linecap: butt; stroke-dashoffset: 0; stroke-linejoin: miter; stroke-miterlimit: 4; fill: rgb(255,255,255); fill-rule: nonzero; opacity: 1; visibility: hidden;"/>
</g>
<g id="61791aaf-f9cf-4eba-8ed5-dc8ca44c0289" transform="matrix(1 0 0 1 540 540)">
</g>
<g transform="matrix(2.76 0 0 2.76 541 540)">
<g style="">
		<g transform="matrix(1 0 0 1 61.35 14.8)">
<polygon points="19.15,-60.6 -18.85,-38.1 -19.25,60.6 19.25,37.7" style="stroke: none; stroke-width: 1; stroke-dasharray: none; stroke-linecap: butt; stroke-dashoffset: 0; stroke-linejoin: miter; stroke-miterlimit: 4; fill: rgb(242,242,242); fill-rule: nonzero; opacity: 1;"/>
</g>
		<g transform="matrix(1 0 0 1 20.55 66.05)">
<polyline points="1.05,-22.25 -21.75,-8.45 -21.75,34.65 21.55,9.35 21.75,-34.65 -21.75,-8.45" style="stroke: none; stroke-width: 1; stroke-dasharray: none; stroke-linecap: butt; stroke-dashoffset: 0; stroke-linejoin: miter; stroke-miterlimit: 4; fill: rgb(71,60,60); fill-rule: nonzero; opacity: 1;"/>
</g>
		<g transform="matrix(1 0 0 1 -22.9 66)">
<polyline points="-1,-22.2 21.7,-8.5 21.7,34.7 -21.6,9.4 -21.7,-34.7 21.7,-8.5" style="stroke: none; stroke-width: 1; stroke-dasharray: none; stroke-linecap: butt; stroke-dashoffset: 0; stroke-linejoin: miter; stroke-miterlimit: 4; fill: rgb(71,60,60); fill-rule: nonzero; opacity: 1;"/>
</g>
		<g transform="matrix(1 0 0 1 -63.65 14.85)">
<polygon points="-19.05,-60.55 18.85,-38.05 19.15,60.55 -19.15,37.65" style="stroke: none; stroke-width: 1; stroke-dasharray: none; stroke-linecap: butt; stroke-dashoffset: 0; stroke-linejoin: miter; stroke-miterlimit: 4; fill: rgb(239,239,239); fill-rule: nonzero; opacity: 1;"/>
</g>
		<g transform="matrix(1 0 0 1 -23.05 17.25)">
<polygon points="-21.75,-40.35 21.75,-14.35 21.75,40.35 -21.55,14.05" style="stroke: none; stroke-width: 1; stroke-dasharray: none; stroke-linecap: butt; stroke-dashoffset: 0; stroke-linejoin: miter; stroke-miterlimit: 4; fill: rgb(191,190,193); fill-rule: nonzero; opacity: 1;"/>
</g>
		<g transform="matrix(1 0 0 1 20.65 17.25)">
<polygon points="21.85,-40.35 -21.85,-14.35 -21.85,40.35 21.65,14.15" style="stroke: none; stroke-width: 1; stroke-dasharray: none; stroke-linecap: butt; stroke-dashoffset: 0; stroke-linejoin: miter; stroke-miterlimit: 4; fill: rgb(232,231,232); fill-rule: nonzero; opacity: 1;"/>
</g>
		<g transform="matrix(1 0 0 1 39.55 -26.5)">
<polygon points="-40.85,29.4 40.85,-19.3 40.75,-29.4 -40.85,18" style="stroke: none; stroke-width: 1; stroke-dasharray: none; stroke-linecap: butt; stroke-dashoffset: 0; stroke-linejoin: miter; stroke-miterlimit: 4; fill: rgb(46,45,49); fill-rule: nonzero; opacity: 1;"/>
</g>
		<g transform="matrix(1 0 0 1 -41.95 -26.45)">
<polygon points="40.75,29.35 -40.75,-19.25 -40.65,-29.35 40.75,17.95" style="stroke: none; stroke-width: 1; stroke-dasharray: none; stroke-linecap: butt; stroke-dashoffset: 0; stroke-linejoin: miter; stroke-miterlimit: 4; fill: rgb(46,45,49); fill-rule: nonzero; opacity: 1;"/>
</g>
		<g transform="matrix(1 0 0 1 -1.15 -55.3)">
<polygon points="-81.55,-0.7 0.25,-46.8 81.55,-0.7 -0.05,46.8" style="stroke: none; stroke-width: 1; stroke-dasharray: none; stroke-linecap: butt; stroke-dashoffset: 0; stroke-linejoin: miter; stroke-miterlimit: 4; fill: rgb(255,195,80); fill-rule: nonzero; opacity: 1;"/>
</g>
		<g transform="matrix(1 0 0 1 0 0.05)">
<path stroke-linecap="round" d="M 393.2 113.4 C 392.7 148.7 392.2 184.10000000000002 391.59999999999997 219.4 C 364.59999999999997 235.5 337.59999999999997 251.60000000000002 310.5 267.7 C 283.5 251.6 256.5 235.5 229.4 219.39999999999998 C 229.4 183.49999999999997 229.4 147.7 229.4 111.79999999999998 C 256.4 96.69999999999999 283.4 81.69999999999999 310.5 66.59999999999998 C 338.2 82.2 365.7 97.8 393.2 113.4 z" transform="translate(-311.3, -167.15)" style="stroke: rgb(0,0,0); stroke-width: 4; stroke-dasharray: none; stroke-linecap: butt; stroke-dashoffset: 0; stroke-linejoin: miter; stroke-miterlimit: 10; fill: none; fill-rule: nonzero; opacity: 1;"/>
</g>
</g>
</g>
</svg>